HIERARCHY
ROOT Hips
{
  OFFSET 51.4769 56.1698 7.09529
  CHANNELS 6 Xposition Yposition Zposition Zrotation Xrotation Yrotation
  JOINT spine
  {
    OFFSET 0 6.3926 0.367606
    CHANNELS 3 Zrotation Xrotation Yrotation
    JOINT spine1
    {
      OFFSET 0 9.17611 0
      CHANNELS 3 Zrotation Xrotation Yrotation
      JOINT spine2
      {
        OFFSET 0 8.79238 0
        CHANNELS 3 Zrotation Xrotation Yrotation
        JOINT Neck
        {
          OFFSET 0 22.5737 1.07624
          CHANNELS 3 Zrotation Xrotation Yrotation
          JOINT Head
          {
            OFFSET 0 6.82011 0
            CHANNELS 3 Zrotation Xrotation Yrotation
            End Site
            {
              OFFSET 0 16.5085 -5.44427
            }
          }
        }
        JOINT RightShoulder
        {
          OFFSET -3.70221 9.49509 -0.515508
          CHANNELS 3 Zrotation Xrotation Yrotation
          JOINT RightArm
          {
            OFFSET 0 12.4537 0
            CHANNELS 3 Zrotation Xrotation Yrotation
            JOINT RightArmRoll
            {
              OFFSET 0 6.28686 0
              CHANNELS 3 Zrotation Xrotation Yrotation
              JOINT RightForeArm
              {
                OFFSET 0 18.3114 0
                CHANNELS 3 Zrotation Xrotation Yrotation
                JOINT RightForeArmRoll
                {
                  OFFSET 0 7.05483 0
                  CHANNELS 3 Zrotation Xrotation Yrotation
                  JOINT RightHand
                  {
                    OFFSET 0 14.1575 0
                    CHANNELS 3 Zrotation Xrotation Yrotation
                    End Site
                    {
                      OFFSET 0 0 0
                    }
                  }
                }
              }
            }
          }
        }
        JOINT LeftShoulder
        {
          OFFSET 3.70221 9.49509 -0.515508
          CHANNELS 3 Zrotation Xrotation Yrotation
          JOINT LeftArm
          {
            OFFSET 0 12.4537 0
            CHANNELS 3 Zrotation Xrotation Yrotation
            JOINT LeftArmRoll
            {
              OFFSET 0 6.28685 0
              CHANNELS 3 Zrotation Xrotation Yrotation
              JOINT LeftForeArm
              {
                OFFSET 0 18.3114 0
                CHANNELS 3 Zrotation Xrotation Yrotation
                JOINT LeftForeArmRoll
                {
                  OFFSET 0 7.05482 0
                  CHANNELS 3 Zrotation Xrotation Yrotation
                  JOINT LeftHand
                  {
                    OFFSET 0 14.1575 0
                    CHANNELS 3 Zrotation Xrotation Yrotation
                    End Site
                    {
                      OFFSET 0 0 0
                    }
                  }
                }
              }
            }
          }
        }
      }
    }
  }
  JOINT RightUpLeg
  {
    OFFSET -5.66616 -1.03903 -0.87161
    CHANNELS 3 Zrotation Xrotation Yrotation
    JOINT RightUpLegRoll
    {
      OFFSET 0 16.6005 0
      CHANNELS 3 Zrotation Xrotation Yrotation
      JOINT RightLeg
      {
        OFFSET 0 -20.5572 0
        CHANNELS 3 Zrotation Xrotation Yrotation
        JOINT RightLegRoll
        {
          OFFSET 0 20.6244 0
          CHANNELS 3 Zrotation Xrotation Yrotation
          JOINT RightFoot
          {
            OFFSET 0 17.1664 0
            CHANNELS 3 Zrotation Xrotation Yrotation
            JOINT RightToeBase
            {
              OFFSET 0 14.3502 0
              CHANNELS 3 Zrotation Xrotation Yrotation
              End Site
              {
                OFFSET 0.00608252 6.9497 -0.801061
              }
            }
          }
        }
      }
    }
  }
  JOINT LeftUpLeg
  {
    OFFSET 5.66616 -1.03903 -0.87161
    CHANNELS 3 Zrotation Xrotation Yrotation
    JOINT LeftUpLegRoll
    {
      OFFSET 0 16.6006 0
      CHANNELS 3 Zrotation Xrotation Yrotation
      JOINT LeftLeg
      {
        OFFSET 0 20.5571 0
        CHANNELS 3 Zrotation Xrotation Yrotation
        JOINT LeftLegRoll
        {
          OFFSET 0 20.8151 0
          CHANNELS 3 Zrotation Xrotation Yrotation
          JOINT LeftFoot
          {
            OFFSET 0 16.9757 0
            CHANNELS 3 Zrotation Xrotation Yrotation
            JOINT LeftToeBase
            {
              OFFSET 0 14.3502 0
              CHANNELS 3 Zrotation Xrotation Yrotation
              End Site
              {
                OFFSET -0.0272592 6.94971 -0.80106
              }
            }
          }
        }
      }
    }
  }
}
MOTION
Frames: 12
Frame Time: 0.00208333
53.7366 85.8735 46.0303 -0.939096 -2.12633 0.556878 -0.307558 -1.60266 -0.24446 -0.609272 0.778621 -0.472177 -0.604033 2.42362 -0.462394 4.44327 6.59052 0.101258 -2.50846 3.40366 1.15275 61.3536 -3.84786 -2.55698 109.996 17.3548 -0.0978155 1.56359e-006 1.57374e-006 -5.20821e-006 15.7105 6.92878 -1.16385 -9.46027e-006 1.36184e-006 -3 8.02896 -4.95143 0.697702 -53.4573 -4.39013 2.30169 -114.34 16.142 4.80068 2.33072e-005 -2.12713e-006 5.56896e-006 -13.1107 4.57185 0.920834 4.79956e-006 -2.26942e-006 3 -8.02888 -4.95146 -0.697701 177.232 -0.326989 0.658284 180 7.01555e-015 178.957 175.884 6.40351 179.803 1.62963e-007 2.19174e-006 0.0651979 -17.8387 67.0203 18.764 8.12663 25.2332 -3.48353 -176.105 -1.78712 1.17753 4.54188e-006 -4.6773e-006 -1.11019 -0.98425 -5.25393 0.382969 1.01185e-006 -4.00627e-006 -0.0266478 18.6061 67.8974 -19.4565 -8.14734 25.4061 3.25299 
53.7366 85.8739 46.0244 -0.939233 -2.11853 0.561553 -0.307104 -1.60295 -0.24489 -0.609091 0.777999 -0.471961 -0.603849 2.423 -0.462165 4.44896 6.59637 0.0992614 -2.51462 3.40585 1.15219 61.3535 -3.84804 -2.55712 109.987 17.3494 -0.115744 1.56359e-006 1.57374e-006 -5.20821e-006 15.7203 6.96945 -1.16957 -9.46027e-006 1.36184e-006 -3 8.02896 -4.95143 0.697702 -53.4559 -4.38493 2.29801 -114.339 16.1433 4.81786 2.33072e-005 -2.12713e-006 5.56896e-006 -13.1217 4.59978 0.924407 4.79956e-006 -2.26942e-006 3 -8.02888 -4.95146 -0.697701 177.237 -0.3143 0.651468 180 7.01555e-015 178.957 175.891 6.4053 179.803 1.62963e-007 2.19174e-006 0.0646876 -17.8373 67.0184 18.7619 8.12663 25.2332 -3.48353 -176.106 -1.77482 1.1822 4.54188e-006 -4.6773e-006 -1.11008 -0.979952 -5.25081 0.383412 1.01185e-006 -4.00627e-006 -0.0266504 18.6029 67.8936 -19.4531 -8.14729 25.4054 3.25395 
53.7475 85.8689 46.0239 -0.939394 -2.11056 0.56628 -0.306643 -1.6033 -0.245317 -0.60892 0.777245 -0.471666 -0.603676 2.42224 -0.461856 4.45497 6.60267 0.0970825 -2.52095 3.40763 1.15153 61.3538 -3.84817 -2.55726 109.978 17.3437 -0.134205 1.56359e-006 1.57374e-006 -5.20821e-006 15.7306 7.01101 -1.17541 -9.46027e-006 1.36184e-006 -3 8.02896 -4.95143 0.697702 -53.4545 -4.37929 2.29404 -114.339 16.1444 4.8353 2.33072e-005 -2.12713e-006 5.56896e-006 -13.1332 4.62799 0.928013 4.79956e-006 -2.26942e-006 3 -8.02888 -4.95146 -0.697701 177.241 -0.301399 0.644687 180 7.01555e-015 178.957 175.898 6.40726 179.802 1.62963e-007 2.19174e-006 0.0641562 -17.8358 67.0164 18.7597 8.12663 25.2332 -3.48353 -176.107 -1.76236 1.18709 4.54188e-006 -4.6773e-006 -1.10998 -0.975389 -5.24773 0.38388 1.01185e-006 -4.00627e-006 -0.0266544 18.5998 67.8899 -19.4498 -8.14725 25.4049 3.25473 
53.7465 85.8768 46.0159 -0.939573 -2.10249 0.571043 -0.306176 -1.60367 -0.245742 -0.608756 0.776399 -0.471316 -0.60351 2.4214 -0.461492 4.46121 6.60928 0.0947762 -2.52738 3.40911 1.15081 61.3544 -3.84827 -2.55741 109.968 17.3378 -0.153039 1.56359e-006 1.57374e-006 -5.20821e-006 15.7412 7.05317 -1.18133 -9.46027e-006 1.36184e-006 -3 8.02896 -4.95143 0.697702 -53.4532 -4.37336 2.28988 -114.338 16.1454 4.85292 2.33072e-005 -2.12713e-006 5.56896e-006 -13.1449 4.6564 0.931642 4.79956e-006 -2.26942e-006 3 -8.02888 -4.95146 -0.697701 177.246 -0.288349 0.637931 180 7.01555e-015 178.957 175.904 6.40934 179.801 1.62963e-007 2.19174e-006 0.0636099 -17.8341 67.0143 18.7574 8.12663 25.2332 -3.48353 -176.109 -1.74977 1.19213 4.54188e-006 -4.6773e-006 -1.10988 -0.97064 -5.24466 0.384363 1.01185e-006 -4.00627e-006 -0.0266594 18.5967 67.8861 -19.4464 -8.14722 25.4044 3.25539 
53.7366 85.866 46.0018 -0.939763 -2.09434 0.575827 -0.305707 -1.60406 -0.246166 -0.608597 0.775501 -0.470933 -0.603349 2.4205 -0.461096 4.46759 6.61607 0.0923969 -2.53387 3.41043 1.15004 61.3551 -3.84836 -2.55755 109.959 17.3319 -0.172086 1.56359e-006 1.57374e-006 -5.20821e-006 15.7519 7.09569 -1.1873 -9.46027e-006 1.36184e-006 -3 8.02896 -4.95143 0.697702 -53.4519 -4.36726 2.28559 -114.338 16.1464 4.87064 2.33072e-005 -2.12713e-006 5.56896e-006 -13.1568 4.68492 0.935284 4.79956e-006 -2.26942e-006 3 -8.02888 -4.95146 -0.697701 177.25 -0.275213 0.631188 180 7.01555e-015 178.957 175.911 6.41148 179.8 1.62963e-007 2.19174e-006 0.0630552 -17.8325 67.0121 18.755 8.12663 25.2332 -3.48353 -176.11 -1.73713 1.19726 4.54188e-006 -4.6773e-006 -1.10978 -0.965786 -5.24161 0.384857 1.01185e-006 -4.00627e-006 -0.0266648 18.5936 67.8823 -19.443 -8.14719 25.4039 3.25598 
53.7405 85.8678 45.998 -0.939956 -2.08619 0.580616 -0.305236 -1.60446 -0.246589 -0.608438 0.77459 -0.470544 -0.603189 2.41959 -0.460691 4.47399 6.6229 0.0899995 -2.54038 3.41171 1.14927 61.3558 -3.84844 -2.5577 109.949 17.3259 -0.191185 1.56359e-006 1.57374e-006 -5.20821e-006 15.7627 7.1383 -1.19329 -9.46027e-006 1.36184e-006 -3 8.02896 -4.95143 0.697702 -53.4506 -4.36111 2.28128 -114.337 16.1473 4.88839 2.33072e-005 -2.12713e-006 5.56896e-006 -13.1688 4.71346 0.93893 4.79956e-006 -2.26942e-006 3 -8.02888 -4.95146 -0.697701 177.255 -0.262056 0.62445 180 7.01555e-015 178.958 175.917 6.41363 179.799 1.62963e-007 2.19174e-006 0.0624984 -17.8308 67.0099 18.7526 8.12663 25.2332 -3.48353 -176.111 -1.72446 1.20241 4.54188e-006 -4.6773e-006 -1.10968 -0.960905 -5.23856 0.385352 1.01185e-006 -4.00627e-006 -0.0266704 18.5904 67.8786 -19.4396 -8.14716 25.4035 3.25656 
53.7434 85.8734 45.9885 -0.940145 -2.07806 0.585395 -0.304767 -1.60484 -0.247014 -0.608277 0.773704 -0.470169 -0.603027 2.4187 -0.460303 4.48034 6.62964 0.0876383 -2.54686 3.41307 1.14851 61.3565 -3.84852 -2.55784 109.94 17.3199 -0.210176 1.56359e-006 1.57374e-006 -5.20821e-006 15.7734 7.18073 -1.19925 -9.46027e-006 1.36184e-006 -3 8.02896 -4.95143 0.697702 -53.4493 -4.35505 2.27703 -114.336 16.1482 4.90609 2.33072e-005 -2.12713e-006 5.56896e-006 -13.1807 4.74195 0.94257 4.79956e-006 -2.26942e-006 3 -8.02888 -4.95146 -0.697701 177.26 -0.248942 0.617704 180 7.01555e-015 178.958 175.924 6.41573 179.799 1.62963e-007 2.19174e-006 0.0619458 -17.8292 67.0077 18.7503 8.12663 25.2332 -3.48353 -176.112 -1.71183 1.20752 4.54188e-006 -4.6773e-006 -1.10958 -0.956077 -5.23551 0.385843 1.01185e-006 -4.00627e-006 -0.0266757 18.5873 67.8748 -19.4362 -8.14713 25.4031 3.25717 
53.75 85.8958 45.9937 -0.940325 -2.07002 0.590148 -0.304302 -1.60521 -0.247439 -0.608112 0.772885 -0.469835 -0.602859 2.41788 -0.459955 4.48652 6.63617 0.0853681 -2.55326 3.41464 1.14781 61.357 -3.84863 -2.55799 109.931 17.3141 -0.228899 1.56359e-006 1.57374e-006 -5.20821e-006 15.784 7.22272 -1.20516 -9.46027e-006 1.36184e-006 -3 8.02896 -4.95143 0.697702 -53.448 -4.34921 2.27292 -114.336 16.1493 4.92365 2.33072e-005 -2.12713e-006 5.56896e-006 -13.1924 4.7703 0.946195 4.79956e-006 -2.26942e-006 3 -8.02888 -4.95146 -0.697701 177.264 -0.235934 0.610941 180 7.01555e-015 178.958 175.931 6.41779 179.798 1.62963e-007 2.19174e-006 0.0614038 -17.8276 67.0056 18.748 8.12663 25.2332 -3.48353 -176.113 -1.69929 1.21252 4.54188e-006 -4.6773e-006 -1.10948 -0.951382 -5.23244 0.386322 1.01185e-006 -4.00627e-006 -0.0266803 18.5842 67.871 -19.4328 -8.14709 25.4025 3.25786 
53.7538 85.8934 45.9858 -0.940487 -2.0621 0.594859 -0.303843 -1.60553 -0.247867 -0.607938 0.77217 -0.469563 -0.602682 2.41717 -0.45967 4.49244 6.64233 0.0832435 -2.55953 3.41654 1.14718 61.3572 -3.84878 -2.55813 109.922 17.3085 -0.247193 1.56359e-006 1.57374e-006 -5.20821e-006 15.7942 7.26401 -1.21097 -9.46027e-006 1.36184e-006 -3 8.02896 -4.95143 0.697702 -53.4466 -4.3437 2.26904 -114.335 16.1504 4.94102 2.33072e-005 -2.12713e-006 5.56896e-006 -13.2037 4.79843 0.949794 4.79956e-006 -2.26942e-006 3 -8.02888 -4.95146 -0.697701 177.269 -0.223096 0.60415 180 7.01555e-015 178.958 175.937 6.41968 179.797 1.62963e-007 2.19174e-006 0.0608787 -17.8261 67.0037 18.7458 8.12663 25.2332 -3.48353 -176.114 -1.68687 1.21734 4.54188e-006 -4.6773e-006 -1.10938 -0.946899 -5.22935 0.386782 1.01185e-006 -4.00627e-006 -0.026684 18.5811 67.8672 -19.4294 -8.14705 25.4019 3.2587 
53.7482 85.8709 45.9683 -0.940625 -2.05436 0.599513 -0.303393 -1.60582 -0.248299 -0.607752 0.7716 -0.469379 -0.602494 2.4166 -0.459473 4.498 6.64801 0.0813191 -2.56564 3.4189 1.14666 61.357 -3.84898 -2.55827 109.913 17.3031 -0.264899 1.56359e-006 1.57374e-006 -5.20821e-006 15.8039 7.30433 -1.21666 -9.46027e-006 1.36184e-006 -3 8.02896 -4.95143 0.697702 -53.4451 -4.33867 2.26548 -114.335 16.1518 4.9581 2.33072e-005 -2.12713e-006 5.56896e-006 -13.2146 4.82624 0.953359 4.79956e-006 -2.26942e-006 3 -8.02888 -4.95146 -0.697701 177.273 -0.210492 0.59732 180 7.01555e-015 178.958 175.944 6.42142 179.796 1.62963e-007 2.19174e-006 0.0603769 -17.8247 67.0019 18.7438 8.12663 25.2332 -3.48353 -176.115 -1.67463 1.22192 4.54188e-006 -4.6773e-006 -1.10927 -0.942707 -5.22622 0.387216 1.01185e-006 -4.00627e-006 -0.0266861 18.578 67.8635 -19.4261 -8.14699 25.4012 3.25973 
53.7376 85.8827 45.9577 -0.940732 -2.04685 0.604095 -0.302954 -1.60604 -0.248734 -0.607553 0.771214 -0.469305 -0.60229 2.41621 -0.459388 4.5031 6.65306 0.0796495 -2.57152 3.42184 1.14627 61.3563 -3.84924 -2.55841 109.905 17.2981 -0.281855 1.56359e-006 1.57374e-006 -5.20821e-006 15.8131 7.34343 -1.22218 -9.46027e-006 1.36184e-006 -3 8.02896 -4.95143 0.697702 -53.4435 -4.33423 2.26232 -114.336 16.1534 4.97482 2.33072e-005 -2.12713e-006 5.56896e-006 -13.2249 4.85367 0.956879 4.79956e-006 -2.26942e-006 3 -8.02888 -4.95146 -0.697701 177.278 -0.198187 0.590441 180 7.01555e-015 178.958 175.951 6.42292 179.795 1.62963e-007 2.19174e-006 0.0599048 -17.8235 67.0003 18.7421 8.12663 25.2332 -3.48353 -176.116 -1.66263 1.22619 4.54188e-006 -4.6773e-006 -1.10915 -0.938885 -5.22305 0.387618 1.01185e-006 -4.00627e-006 -0.0266864 18.5748 67.8597 -19.4227 -8.14693 25.4002 3.26101 
53.7401 85.8748 45.9472 -0.940801 -2.03961 0.608589 -0.302527 -1.60618 -0.249175 -0.607336 0.771051 -0.469365 -0.602067 2.41605 -0.459439 4.50765 6.65736 0.0782894 -2.57714 3.4255 1.14605 61.3551 -3.84958 -2.55854 109.897 17.2936 -0.297903 1.56359e-006 1.57374e-006 -5.20821e-006 15.8215 7.38103 -1.22751 -9.46027e-006 1.36184e-006 -3 8.02896 -4.95143 0.697702 -53.4419 -4.33052 2.25966 -114.336 16.1553 4.99111 2.33072e-005 -2.12713e-006 5.56896e-006 -13.2345 4.88061 0.960345 4.79956e-006 -2.26942e-006 3 -8.02888 -4.95146 -0.697701 177.282 -0.186243 0.583503 180 7.01555e-015 178.958 175.958 6.42415 179.795 1.62963e-007 2.19174e-006 0.0594686 -17.8225 66.999 18.7406 8.12663 25.2332 -3.48353 -176.117 -1.6509 1.23008 4.54188e-006 -4.6773e-006 -1.10903 -0.935514 -5.21983 0.387979 1.01185e-006 -4.00627e-006 -0.0266845 18.5717 67.8559 -19.4193 -8.14685 25.3991 3.26259 
